<?xml version="1.0" standalone="no"?>
<!DOCTYPE svg PUBLIC "-//W3C//DTD SVG 20010904//EN"
 "http://www.w3.org/TR/2001/REC-SVG-20010904/DTD/svg10.dtd">
<svg version="1.0" xmlns="http://www.w3.org/2000/svg"
 width="160" height="48"  viewBox="0 0 913.000000 300.000000"
 preserveAspectRatio="xMidYMid meet">
<metadata>
Created by potrace 1.16, written by Peter Selinger 2001-2019
</metadata>
<g transform="translate(0.000000,300.000000) scale(0.100000,-0.100000)"
fill="#000000" stroke="none">
<path d="M130 1665 l0 -1235 1480 0 1480 0 0 1235 0 1235 -459 0 -460 0 75
-75 c41 -42 74 -82 74 -90 0 -8 4 -15 9 -15 11 0 91 -160 91 -182 0 -8 7 -35
16 -59 17 -51 22 -342 5 -362 -5 -7 -9 -15 -9 -20 -1 -52 -41 -152 -98 -242
-63 -101 -206 -221 -309 -261 -25 -9 -48 -21 -51 -25 -3 -5 -14 -9 -25 -9 -10
0 -27 -4 -37 -9 -23 -12 -152 -41 -179 -41 -45 0 -21 -17 80 -58 166 -67 215
-81 287 -79 l66 2 -19 -50 c-11 -27 -28 -75 -39 -105 -11 -30 -25 -61 -31 -68
-12 -16 -97 -12 -162 7 -22 7 -45 13 -51 14 -7 2 -18 8 -25 13 -8 6 -36 19
-64 29 -27 10 -70 29 -95 43 -87 47 -171 72 -241 72 -77 0 -117 -12 -177 -51
-24 -16 -46 -29 -50 -29 -4 1 -27 32 -51 71 l-43 70 23 25 c33 36 115 79 176
95 56 14 60 23 13 32 -58 12 -219 90 -257 125 -13 12 -26 22 -29 22 -12 0 -98
88 -125 126 -44 64 -85 143 -107 207 -11 31 -19 57 -17 57 2 0 -3 24 -11 53
-16 59 -19 245 -4 297 5 19 12 49 15 66 17 101 109 261 203 352 l55 52 -462 0
-461 0 0 -1235z m1294 -577 c66 -19 156 -78 226 -148 14 -14 41 -37 60 -50 19
-13 37 -27 40 -30 24 -29 249 -140 284 -140 28 0 39 10 27 24 -24 31 -61 110
-61 130 0 67 87 125 152 103 38 -14 194 -102 221 -125 9 -8 17 -12 17 -7 0 4
12 -1 28 -11 23 -16 46 -19 142 -18 106 0 121 3 193 32 43 18 104 46 137 62
68 34 82 36 101 14 12 -15 8 -21 -30 -55 -24 -22 -51 -39 -60 -39 -9 0 -27 -7
-39 -16 -12 -8 -30 -17 -40 -19 -9 -2 -51 -15 -92 -28 -137 -45 -271 -76 -446
-102 -116 -17 -540 -21 -639 -6 -33 6 -91 12 -128 15 -38 3 -72 8 -77 11 -4 3
-36 9 -71 14 -123 19 -419 90 -456 109 -12 7 -30 12 -40 12 -16 0 -127 38
-183 63 -117 52 -204 119 -183 141 20 20 79 -5 307 -128 49 -26 86 -34 86 -17
0 5 -9 28 -20 52 -26 58 -26 88 2 98 40 15 69 -2 168 -95 110 -104 196 -164
235 -164 32 0 42 23 22 54 -21 32 -57 143 -57 175 1 81 74 118 174 89z"/>
<path d="M1520 2783 c-37 -9 -88 -30 -118 -50 -55 -37 -132 -117 -132 -138 0
-7 -6 -18 -13 -24 -11 -9 -25 -43 -43 -106 -41 -141 -28 -315 31 -435 12 -25
29 -57 37 -72 22 -40 107 -117 163 -146 46 -25 60 -27 170 -27 115 0 122 1
180 32 259 135 327 570 130 829 -41 54 -48 59 -117 98 -48 27 -154 56 -198 55
-14 0 -54 -8 -90 -16z"/>
<path d="M4665 2629 c-162 -15 -312 -52 -407 -100 -10 -5 -25 -9 -33 -9 -8 0
-15 -4 -15 -9 0 -5 -12 -14 -27 -20 -26 -10 -50 -24 -77 -44 -106 -77 -115
-85 -183 -160 -50 -55 -120 -174 -153 -258 -48 -124 -60 -205 -60 -394 0 -149
3 -182 26 -275 15 -58 39 -130 55 -161 15 -31 25 -61 21 -65 -4 -5 -3 -6 2 -2
9 7 23 -11 44 -57 6 -11 19 -29 31 -39 11 -11 21 -27 21 -38 0 -10 7 -18 15
-18 9 0 20 -10 25 -22 5 -13 9 -20 9 -16 1 5 9 0 19 -10 11 -9 17 -20 15 -24
-2 -5 3 -8 11 -8 9 0 25 -9 36 -20 11 -11 20 -17 20 -12 0 4 4 2 8 -4 4 -5 25
-21 47 -34 22 -13 51 -34 64 -47 13 -13 31 -23 41 -23 9 0 20 -3 24 -7 3 -4
12 -8 19 -9 7 -2 28 -8 47 -15 56 -19 64 -22 75 -23 21 -3 55 -18 55 -25 0 -4
19 -8 43 -8 45 -2 66 -5 82 -14 6 -3 93 -7 195 -8 101 -1 189 -5 194 -8 5 -3
6 -1 2 5 -5 8 1 12 17 12 49 0 199 31 274 56 204 69 373 184 479 329 16 22 34
45 40 50 6 6 17 26 24 45 7 19 19 42 27 51 7 8 13 21 13 27 0 7 4 20 9 30 14
29 39 113 56 195 20 91 17 349 -5 432 -22 86 -60 191 -83 233 -59 106 -88 152
-97 152 -6 0 -10 5 -10 11 0 10 -105 119 -115 119 -2 0 -16 11 -30 24 -14 13
-41 31 -59 40 -18 9 -39 22 -46 31 -7 8 -17 15 -23 15 -6 0 -31 9 -56 21 -25
11 -55 25 -66 30 -45 20 -205 61 -270 69 -122 15 -267 19 -370 9z m325 -129
c73 -24 90 -33 84 -41 -3 -5 2 -6 10 -3 16 6 86 -36 129 -78 16 -15 34 -31 41
-35 23 -14 102 -137 139 -215 85 -182 117 -441 83 -670 -47 -314 -174 -523
-378 -627 -96 -48 -165 -62 -298 -61 -102 1 -116 2 -170 14 -39 9 -156 61
-177 79 -7 7 -35 30 -61 52 -50 41 -129 141 -125 156 2 5 -1 9 -6 9 -20 0 -88
180 -110 290 -21 105 -30 272 -21 380 13 142 44 290 62 290 5 0 6 5 2 11 -9
15 26 90 39 82 6 -3 7 -1 3 5 -8 14 20 72 35 72 6 0 8 4 5 9 -6 9 38 73 73
106 11 11 35 34 53 52 36 34 181 112 220 117 12 2 30 6 38 9 47 18 273 16 330
-3z"/>
<path d="M6050 2562 c0 -43 12 -52 78 -52 96 0 176 -59 205 -151 15 -51 17
-117 17 -746 l0 -690 -29 -40 c-47 -64 -97 -87 -238 -108 -41 -6 -43 -8 -43
-42 l0 -35 338 4 c185 1 414 1 507 0 l170 -4 3 34 3 35 -93 17 c-102 20 -165
50 -194 93 -18 27 -19 60 -22 727 -3 780 -3 774 62 840 39 38 110 66 170 66
74 0 86 7 86 53 l0 40 -122 -9 c-158 -11 -561 -12 -750 0 l-148 8 0 -40z"/>
<path d="M7130 2558 l0 -44 81 -13 c44 -8 86 -19 93 -26 6 -7 22 -16 34 -19
27 -9 66 -67 77 -116 14 -60 18 -1338 4 -1390 -28 -105 -82 -149 -211 -170
l-78 -13 0 -33 0 -33 518 2 c284 0 670 0 857 -2 187 -1 343 -2 346 -2 6 1 22
43 49 126 7 22 18 54 25 70 7 17 19 46 26 65 7 19 43 104 81 189 37 85 68 160
68 167 0 13 -47 51 -54 43 -2 -2 -20 -31 -40 -63 -21 -33 -44 -66 -52 -73 -8
-8 -14 -18 -14 -22 0 -11 -132 -146 -142 -143 -4 1 -7 -2 -6 -7 7 -22 -269
-191 -285 -175 -3 3 -16 0 -28 -7 -13 -6 -55 -20 -93 -30 -58 -14 -106 -17
-266 -15 -119 2 -215 8 -248 16 l-52 13 2 421 3 421 70 3 c90 4 171 -6 188
-23 8 -7 28 -12 45 -11 21 1 32 -2 32 -11 0 -7 3 -12 8 -12 24 4 42 -3 42 -16
0 -8 5 -15 11 -15 5 0 7 5 3 12 -4 7 6 3 22 -9 34 -25 98 -93 87 -93 -5 0 -3
-4 3 -8 16 -10 45 -69 65 -132 15 -49 20 -55 45 -58 l29 -3 0 416 0 415 -25 0
c-20 0 -28 -8 -41 -43 -27 -68 -28 -70 -52 -110 -84 -140 -230 -207 -449 -207
l-88 0 0 345 0 345 83 0 c58 0 78 -3 67 -10 -10 -7 26 -9 118 -7 72 2 132 0
132 -5 0 -4 5 -8 11 -8 5 0 8 4 5 9 -5 8 20 9 87 3 11 -1 15 -7 11 -14 -5 -7
-2 -9 8 -5 9 3 21 0 27 -6 9 -9 14 -9 19 0 8 13 34 2 33 -13 0 -5 7 -8 15 -8
8 1 14 -2 14 -7 0 -5 13 -9 29 -9 17 0 33 -5 36 -10 4 -6 11 -8 16 -5 5 4 9
-1 9 -10 0 -10 6 -15 13 -12 19 7 38 -6 41 -29 2 -11 12 -20 24 -22 12 -2 22
-7 22 -11 0 -5 11 -20 25 -35 13 -14 21 -26 17 -26 -4 0 3 -8 15 -18 12 -9 23
-24 25 -32 2 -8 8 -20 15 -28 7 -7 10 -19 6 -28 -3 -8 3 -22 13 -30 11 -9 12
-12 5 -8 -12 6 5 -25 35 -65 2 -2 17 2 35 9 27 11 30 17 24 39 -4 14 -10 138
-12 275 l-5 249 -286 -9 c-369 -11 -1050 -12 -1259 0 l-163 9 0 -45z"/>
<path d="M4180 624 c-68 -6 -162 -25 -192 -41 -15 -7 -29 -13 -30 -13 -5 2
-72 -30 -93 -43 -11 -6 -22 -13 -23 -14 -2 -1 2 -18 9 -38 12 -32 17 -36 39
-30 14 3 33 7 42 8 9 1 14 5 12 9 -4 7 53 13 79 9 4 -1 10 5 13 13 3 8 12 12
20 9 8 -3 20 0 28 6 9 8 22 8 46 0 23 -8 38 -9 49 -2 22 14 81 8 92 -8 5 -8
22 -12 42 -11 24 2 36 -1 41 -13 3 -9 10 -13 16 -10 5 3 10 1 10 -5 0 -7 7
-10 15 -6 10 3 15 -1 16 -12 0 -10 3 -12 6 -5 3 8 10 9 21 4 9 -5 29 -14 45
-22 15 -7 27 -17 27 -24 0 -6 10 -11 22 -12 37 -3 78 -25 79 -42 0 -11 2 -12
6 -3 4 10 13 6 33 -13 16 -15 31 -26 34 -26 16 3 66 -31 60 -41 -4 -6 -3 -8 4
-4 14 9 63 -14 55 -27 -3 -6 -1 -7 5 -3 6 3 18 -1 26 -10 9 -8 16 -13 16 -9 0
6 111 -52 120 -64 3 -3 10 -6 15 -7 32 -1 65 -18 65 -33 0 -11 3 -12 8 -4 5 8
20 7 58 -7 93 -32 214 -44 321 -30 53 6 103 16 112 20 9 5 42 20 74 34 32 14
79 40 105 57 26 18 58 32 72 31 19 0 21 1 8 6 -14 6 -7 17 43 67 62 61 149
175 149 194 0 6 4 11 8 11 5 0 16 16 25 35 17 36 17 37 -29 61 -18 9 -29 2
-96 -61 -72 -68 -147 -117 -213 -137 -16 -5 -75 -15 -130 -22 -130 -17 -275
-2 -385 39 -19 7 -55 18 -80 25 -25 6 -58 18 -75 25 -16 7 -50 18 -75 26 -25
7 -56 18 -70 25 -14 7 -47 19 -75 27 -27 9 -75 25 -105 37 -30 11 -64 22 -75
25 -11 3 -60 15 -110 28 -88 23 -208 31 -335 21z"/>
</g>
</svg>
